<svg width="27" height="27" viewBox="0 0 27 27" fill="none" xmlns="http://www.w3.org/2000/svg">
<path d="M9.14977 20.4444H4.22323C2.39742 20.4444 1.48452 20.4444 1.29244 20.3087C1.07666 20.1562 1.02393 20.0662 1.00056 19.8106C0.979768 19.5829 1.53928 18.7064 2.65833 16.9536C3.81373 15.1437 4.7948 12.5086 4.7948 8.77778C4.7948 6.71499 5.71195 4.73668 7.34447 3.27806C8.97701 1.81944 11.1912 1 13.5 1C15.8087 1 18.0229 1.81944 19.6554 3.27806C21.2881 4.73668 22.2051 6.71499 22.2051 8.77778C22.2051 12.5086 23.1862 15.1437 24.3417 16.9536C25.4606 18.7064 26.0202 19.5829 25.9994 19.8106C25.9761 20.0662 25.9233 20.1562 25.7075 20.3087C25.5154 20.4444 24.6026 20.4444 22.7768 20.4444H17.8526M9.14977 20.4444L9.14739 21.8333C9.14739 24.1346 11.0962 26 13.5 26C15.9039 26 17.8526 24.1346 17.8526 21.8333V20.4444M9.14977 20.4444H17.8526" stroke="#0360B7" stroke-width="2" stroke-linecap="round" stroke-linejoin="round"/>
</svg>
