<svg width="46" height="48" viewBox="0 0 46 48" fill="none" xmlns="http://www.w3.org/2000/svg">
<path d="M37.9175 20.3575C34.3587 19.505 29.7963 18.9625 24.8688 18.885V17.025C24.8688 16.095 24.0475 15.3975 22.9525 15.3975C21.8575 15.3975 21.0363 16.095 21.0363 17.025V18.885C16.2 18.9625 11.6375 19.4275 8.07875 20.3575C3.15125 21.52 0.6875 23.225 0.6875 25.395V40.3525C0.6875 42.5225 3.15125 44.2275 8.07875 45.4675C12.0938 46.475 17.3862 47.0175 23.0438 47.0175C28.7013 47.0175 33.9938 46.475 38.0088 45.4675C42.845 44.305 45.4 42.5225 45.4 40.3525V25.395C45.3088 23.225 42.9362 21.52 37.9175 20.3575ZM21.0363 22.0625V25.395C21.0363 26.325 21.8575 27.0225 22.9525 27.0225C24.0475 27.0225 24.8688 26.325 24.8688 25.395V22.0625C34.815 22.295 40.9287 24.31 41.385 25.395C41.2025 25.6275 40.655 26.015 38.5563 26.945C35.8188 28.1075 34.9975 30.045 34.45 31.285C34.3587 31.5175 34.1763 31.905 34.085 32.06C33.9025 31.905 33.72 31.595 33.5375 31.44C32.7162 30.355 31.2563 28.495 28.1537 28.65C24.96 28.805 24.0475 31.6725 23.4088 33.6875C23.135 34.4625 22.6787 35.935 22.3137 36.09C21.4925 36.09 21.31 35.935 20.6713 34.9275C19.85 33.765 18.5725 31.905 15.105 31.8275C14.1013 31.75 14.1012 31.75 13.7362 30.975C13.1887 29.89 12.3675 28.185 8.9 27.3325C5.70625 26.5575 4.7025 25.6275 4.61125 25.4725C4.97625 24.3875 11.09 22.295 21.0363 22.0625ZM22.9525 43.7625C11.7288 43.7625 4.885 41.515 4.52 40.3525V29.3475C5.34125 29.735 6.43625 30.045 7.71375 30.355C9.4475 30.82 9.72125 31.3625 10.0862 32.1375C10.6337 33.2225 11.455 34.85 14.8312 34.9275C16.2912 35.005 16.6562 35.47 17.295 36.4775C18.1163 37.5625 19.2112 39.2675 22.2225 39.2675C25.5075 39.2675 26.3288 36.4775 26.9675 34.385C27.2413 33.5325 27.7887 31.75 28.245 31.75C29.0662 31.6725 29.34 31.9825 30.2525 33.0675C30.9825 33.9975 32.0775 35.47 34.3587 35.315C36.64 35.0825 37.4613 33.455 37.9175 32.2925C38.3737 31.2075 38.83 30.2775 40.1987 29.6575C40.5637 29.5025 40.9287 29.3475 41.2937 29.1925V40.275C41.1112 41.515 34.1763 43.7625 22.9525 43.7625ZM22.9525 13.0725C25.8725 13.0725 28.1537 11.0575 28.1537 8.65504C28.1537 7.26004 26.785 0.982544 22.9525 0.982544C19.12 0.982544 17.7512 7.33754 17.7512 8.65504C17.7512 11.0575 20.1238 13.0725 22.9525 13.0725ZM22.9525 4.54754C23.5913 5.47754 24.3212 7.57004 24.3212 8.65504C24.3212 9.27504 23.6825 9.81754 22.9525 9.81754C22.2225 9.81754 21.5837 9.27504 21.5837 8.65504C21.5837 7.57004 22.3138 5.55504 22.9525 4.54754Z" fill="url(#paint0_linear_80_61)"/>
<defs>
<linearGradient id="paint0_linear_80_61" x1="23.0438" y1="0.982544" x2="23.0438" y2="47.0175" gradientUnits="userSpaceOnUse">
<stop stop-color="#0472D1"/>
<stop offset="0.0001" stop-color="#04D1C5"/>
<stop offset="1" stop-color="#02326B"/>
</linearGradient>
</defs>
</svg>
