<svg width="24" height="22" viewBox="0 0 24 22" fill="none" xmlns="http://www.w3.org/2000/svg">
<g clip-path="url(#clip0_80_54)">
<path d="M4.0542 16.0787L14.5006 19.4528C14.5865 19.4807 14.6772 19.4894 14.7646 19.4781C14.852 19.4668 14.9334 19.4357 15.0015 19.3878C15.0696 19.3399 15.1224 19.2765 15.155 19.2034C15.1877 19.1303 15.1992 19.0497 15.1886 18.9687L13.5952 6.50276L15.2927 5.76446C15.4187 5.70933 15.5118 5.60942 15.5514 5.48669C15.5911 5.36397 15.574 5.22849 15.5041 5.11006C15.4341 4.99163 15.3169 4.89995 15.1783 4.85519C15.0398 4.81043 14.8911 4.81626 14.7651 4.87139L13.8955 5.24751L14.1325 4.51379C14.1722 4.39085 14.1552 4.25514 14.0851 4.1365C14.015 4.01787 13.8976 3.92603 13.7588 3.88119C13.62 3.83635 13.4711 3.84219 13.3448 3.89741C13.2186 3.95264 13.1254 4.05273 13.0856 4.17566L12.8487 4.90938L12.369 4.09749C12.3344 4.03885 12.2878 3.98616 12.2319 3.94243C12.176 3.8987 12.1119 3.86479 12.0433 3.84263C11.9047 3.79786 11.7561 3.80369 11.63 3.85882C11.5676 3.88611 11.5127 3.92469 11.4683 3.97235C11.4239 4.02001 11.3909 4.07582 11.3713 4.13658C11.3317 4.25931 11.3487 4.39479 11.4187 4.51321L12.3636 6.10497L3.7737 15.2819C3.71745 15.3416 3.67953 15.4143 3.66338 15.4932C3.64722 15.5721 3.65333 15.6548 3.68117 15.7338C3.709 15.8129 3.75767 15.8858 3.82279 15.946C3.88792 16.0062 3.96744 16.0518 4.0542 16.0787ZM9.11629 11.144L9.43929 11.5604C9.51034 11.6526 9.6116 11.7229 9.72715 11.7602C9.84269 11.7976 9.96594 11.7998 10.0775 11.7665L11.3301 11.4101L12.1329 12.4468C12.2039 12.539 12.3052 12.6093 12.4207 12.6466C12.5363 12.684 12.6595 12.6862 12.7711 12.653L13.2782 12.4992L13.4162 13.584L12.0644 13.9412L11.1785 12.8558C11.108 12.7689 11.0102 12.7028 10.8995 12.6671C10.7887 12.6313 10.6708 12.6277 10.5627 12.6569L9.20929 13.0191L8.32181 11.9386L9.11629 11.144ZM12.6255 7.39948L13.1601 11.4866L12.7706 11.6017L11.9679 10.565C11.8968 10.4728 11.7956 10.4025 11.68 10.3652C11.5645 10.3278 11.4412 10.3256 11.3297 10.3588L10.065 10.7333L9.79958 10.4066L12.6255 7.39948ZM7.51528 12.8661L7.73846 12.8068L8.62433 13.8922C8.6949 13.9791 8.79266 14.0452 8.90341 14.0809C9.01415 14.1167 9.13211 14.1203 9.24015 14.0911L10.5936 13.7289L11.4795 14.8144C11.5508 14.9019 11.6494 14.9685 11.7611 15.0046C11.8728 15.0407 11.9918 15.0444 12.1009 15.0151L13.4543 14.6529L13.595 14.8298L14.0394 18.2965L5.13258 15.4197L7.51528 12.8661Z" fill="url(#paint0_linear_80_54)"/>
</g>
<defs>
<linearGradient id="paint0_linear_80_54" x1="13.7588" y1="3.88119" x2="9.27457" y2="17.7649" gradientUnits="userSpaceOnUse">
<stop stop-color="#0360B7"/>
<stop offset="1" stop-color="#0FEAB4"/>
</linearGradient>
<clipPath id="clip0_80_54">
<rect width="18.8257" height="16.6711" fill="white" transform="translate(5.12402) rotate(17.8997)"/>
</clipPath>
</defs>
</svg>
