<svg width="118" height="118" viewBox="0 0 118 118" fill="none" xmlns="http://www.w3.org/2000/svg">
<path d="M30.3799 55.0637L30.6124 54.2499L30.9999 53.7849L31.4649 53.2424C31.7905 52.9025 32.1814 52.632 32.6143 52.4472C33.0472 52.2624 33.513 52.1671 33.9837 52.1671C34.4543 52.1671 34.9201 52.2624 35.353 52.4472C35.7859 52.632 36.1769 52.9025 36.5024 53.2424L36.9674 53.7849L37.2774 54.4049C37.294 54.6371 37.294 54.8702 37.2774 55.1024C37.3125 55.3336 37.3125 55.5688 37.2774 55.7999C37.2897 56.2629 37.2107 56.7238 37.0449 57.1562C36.864 57.5901 36.6008 57.9848 36.2699 58.3187C35.9456 58.6611 35.5482 58.926 35.1074 59.0937C34.6631 59.2693 34.1902 59.3613 33.7124 59.3649H33.0149L32.3174 59.1324L31.6974 58.8224C31.5557 58.609 31.4509 58.3732 31.3874 58.1249C31.045 57.8006 30.7801 57.4033 30.6124 56.9624C30.4333 56.5327 30.3412 56.0718 30.3412 55.6062C30.3436 55.4248 30.3566 55.2436 30.3799 55.0637Z" fill="url(#paint0_linear_80_62)"/>
<path d="M23.2499 40.765L23.4824 40.0675L23.7924 39.4475L24.2574 38.75C24.5829 38.4101 24.9739 38.1396 25.4068 37.9548C25.8397 37.77 26.3055 37.6747 26.7761 37.6747C27.2468 37.6747 27.7126 37.77 28.1455 37.9548C28.5784 38.1396 28.9693 38.4101 29.2949 38.75L29.7599 39.2925L30.0699 39.9125C30.0865 40.1447 30.0865 40.3778 30.0699 40.61C30.105 40.8412 30.105 41.0763 30.0699 41.3075C30.0822 41.7705 30.0032 42.2313 29.8374 42.6638C29.6565 43.0976 29.3933 43.4924 29.0624 43.8263C28.738 44.1687 28.3407 44.4336 27.8999 44.6013C27.4556 44.7769 26.9826 44.8689 26.5049 44.8725H25.8074L25.1099 44.64L24.4899 44.33C24.2858 44.2044 24.1027 44.0475 23.9474 43.865C23.605 43.5407 23.3401 43.1433 23.1724 42.7025C23.1246 42.2879 23.1509 41.868 23.2499 41.4625C23.2327 41.2303 23.2327 40.9972 23.2499 40.765Z" fill="url(#paint1_linear_80_62)"/>
<path d="M41.1137 22.8625L41.3462 22.165L41.6562 21.545L42.1212 21.0025C42.4467 20.6625 42.8377 20.392 43.2706 20.2072C43.7034 20.0224 44.1692 19.9271 44.6399 19.9271C45.1106 19.9271 45.5764 20.0224 46.0093 20.2072C46.4421 20.392 46.8331 20.6625 47.1587 21.0025L47.6237 21.545L47.9337 22.165C47.9503 22.3972 47.9503 22.6303 47.9337 22.8625C47.9687 23.0936 47.9687 23.3288 47.9337 23.56C47.946 24.0229 47.867 24.4838 47.7012 24.9162C47.5203 25.3501 47.2571 25.7448 46.9262 26.0787C46.6018 26.4211 46.2045 26.686 45.7637 26.8537C45.3193 27.0293 44.8464 27.1213 44.3687 27.125H43.6712L42.9737 26.8925L42.6249 26.5437C42.4208 26.4181 42.2378 26.2612 42.0824 26.0787C41.74 25.7544 41.4751 25.357 41.3074 24.9162C41.1283 24.4865 41.0362 24.0255 41.0362 23.56C41.0447 23.3259 41.0706 23.0927 41.1137 22.8625Z" fill="url(#paint2_linear_80_62)"/>
<path d="M55.4514 37.1613L55.6839 36.4638L55.9939 35.8438L56.4589 35.3013C56.7844 34.9614 57.1754 34.6908 57.6083 34.506C58.0412 34.3212 58.5069 34.226 58.9776 34.226C59.4483 34.226 59.9141 34.3212 60.347 34.506C60.7798 34.6908 61.1708 34.9614 61.4964 35.3013L62.0001 35.8825L62.3101 36.5025C62.3267 36.7347 62.3267 36.9678 62.3101 37.2C62.3452 37.4312 62.3452 37.6664 62.3101 37.8975C62.3224 38.3605 62.2434 38.8214 62.0776 39.2538C61.8967 39.6877 61.6335 40.0824 61.3026 40.4163C60.9783 40.7587 60.5809 41.0236 60.1401 41.1913C59.6958 41.3669 59.2229 41.4589 58.7451 41.4625H58.0476L57.3501 41.23L56.7301 40.92C56.526 40.7944 56.343 40.6375 56.1876 40.455C55.8452 40.1307 55.5803 39.7333 55.4126 39.2925C55.2336 38.8628 55.1414 38.4018 55.1414 37.9363C55.2217 37.6693 55.3254 37.41 55.4514 37.1613Z" fill="url(#paint3_linear_80_62)"/>
<path d="M76.9187 22.8625L77.1512 22.165L77.4999 21.5838L77.9649 21.0413C78.2905 20.7013 78.6814 20.4308 79.1143 20.246C79.5472 20.0612 80.013 19.9659 80.4837 19.9659C80.9543 19.9659 81.4201 20.0612 81.853 20.246C82.2859 20.4308 82.6769 20.7013 83.0024 21.0413L83.4674 21.5838L83.7774 22.2038C83.794 22.436 83.794 22.6691 83.7774 22.9013C83.8125 23.1325 83.8125 23.3676 83.7774 23.5988C83.7897 24.0617 83.7107 24.5226 83.5449 24.955C83.364 25.3889 83.1008 25.7837 82.7699 26.1175C82.4456 26.4599 82.0482 26.7248 81.6074 26.8925C81.1631 27.0682 80.6902 27.1601 80.2124 27.1638H79.5149L78.8174 26.9313L78.1974 26.6213C77.9933 26.4957 77.8103 26.3387 77.6549 26.1563C77.3125 25.8319 77.0476 25.4346 76.8799 24.9938C76.7008 24.564 76.6087 24.1031 76.6087 23.6375C76.6889 23.3706 76.7927 23.1112 76.9187 22.8625Z" fill="url(#paint4_linear_80_62)"/>
<path d="M56.1099 94.6275C55.9741 94.0355 55.9918 93.4187 56.1614 92.8355C56.3309 92.2522 56.6466 91.722 57.0786 91.295L92.4574 55.8775C92.8867 55.4417 93.421 55.1236 94.0088 54.954C94.5966 54.7843 95.2182 54.7688 95.8138 54.909C96.4093 55.0491 96.9588 55.3401 97.4093 55.7541C97.8598 56.168 98.1962 56.691 98.3861 57.2725L116.25 110.399C116.468 111.031 116.504 111.711 116.354 112.363C116.204 113.015 115.874 113.611 115.401 114.084C114.928 114.557 114.332 114.887 113.68 115.037C113.029 115.187 112.348 115.151 111.716 114.933L58.6286 97.2238C58.0153 97.0551 57.4584 96.7254 57.0155 96.2689C56.5726 95.8123 56.2599 95.2456 56.1099 94.6275ZM84.9011 98.5025L99.6261 83.7388L97.6886 77.9263L79.0499 96.565L84.9011 98.5025ZM102.184 91.3338L92.4961 101.021L107.027 105.865L102.184 91.3338ZM71.4936 94.0463L95.1699 70.3313L93.4261 65.0613L66.3011 92.1863L71.4936 94.0463Z" fill="#0360B7"/>
<path d="M49.4064 57.4275L47.7401 47.7012L38.0138 46.035C37.2887 45.9097 36.6201 45.5632 36.0998 45.0428C35.5794 44.5225 35.2328 43.8539 35.1076 43.1287L33.4413 33.4025L23.7151 31.7362C23.252 31.6573 22.809 31.488 22.4114 31.238C22.0137 30.9879 21.6693 30.6619 21.3976 30.2787C21.1259 29.8955 20.9324 29.4625 20.828 29.0045C20.7237 28.5465 20.7106 28.0724 20.7895 27.6093C20.8684 27.1463 21.0377 26.7033 21.2877 26.3056C21.5378 25.908 21.8638 25.5635 22.247 25.2918C22.6302 25.0202 23.0632 24.8266 23.5212 24.7223C23.9792 24.618 24.4533 24.6048 24.9164 24.6837L37.1226 26.7762C37.8477 26.9015 38.5164 27.248 39.0367 27.7684C39.557 28.2887 39.9036 28.9573 40.0289 29.6825L41.6951 39.4087L51.4214 41.075C52.1465 41.2002 52.8151 41.5468 53.3354 42.0671C53.8558 42.5875 54.2024 43.2561 54.3276 43.9812L55.9939 53.7075L65.8751 55.4125C66.7758 55.5435 67.5922 56.0141 68.1571 56.7278C68.722 57.4414 68.9925 58.3441 68.9132 59.2508C68.8339 60.1575 68.4109 60.9996 67.7307 61.6044C67.0506 62.2092 66.1649 62.5309 65.2551 62.5037H64.6351L52.4289 60.4112C51.6716 60.3039 50.969 59.9558 50.4248 59.4186C49.8805 58.8813 49.5235 58.1832 49.4064 57.4275Z" fill="url(#paint5_linear_80_62)"/>
<path d="M10.0751 61.4962L20.3826 57.6212C21.1817 57.3169 22.0635 57.3099 22.8673 57.6016C23.6711 57.8932 24.3433 58.4641 24.7613 59.21L28.6363 66.1462L36.0763 63.3562C36.8754 63.0519 37.7573 63.0449 38.5611 63.3366C39.3649 63.6282 40.0371 64.1991 40.4551 64.945L44.3301 71.8425L51.7701 69.0525C52.2103 68.8897 52.6782 68.8151 53.1472 68.8331C53.6162 68.8511 54.077 68.9613 54.5034 69.1574C54.9298 69.3535 55.3134 69.6317 55.6323 69.9761C55.9512 70.3204 56.1991 70.7242 56.362 71.1644C56.5248 71.6045 56.5994 72.0725 56.5814 72.5415C56.5633 73.0104 56.4532 73.4713 56.257 73.8977C56.0609 74.3241 55.7828 74.7077 55.4384 75.0266C55.0941 75.3455 54.6903 75.5934 54.2501 75.7562L43.9426 79.6312C43.1435 79.9356 42.2617 79.9425 41.4579 79.6509C40.6541 79.3593 39.9819 78.7884 39.5638 78.0425L35.6888 71.1062L28.2489 73.8962C27.4498 74.2006 26.5679 74.2075 25.7641 73.9159C24.9603 73.6243 24.2881 73.0534 23.8701 72.3075L19.9951 65.3712L12.5551 68.1612C12.1149 68.3266 11.6465 68.4037 11.1765 68.388C10.7066 68.3724 10.2443 68.2643 9.81611 68.07C9.38791 67.8757 9.00219 67.599 8.68094 67.2556C8.3597 66.9122 8.10923 66.5089 7.94385 66.0687C7.77847 65.6286 7.7014 65.1601 7.71706 64.6902C7.73271 64.2202 7.84078 63.7579 8.03508 63.3298C8.22939 62.9016 8.50613 62.5158 8.84951 62.1946C9.19289 61.8733 9.59618 61.6229 10.0364 61.4575L10.0751 61.4962Z" fill="url(#paint6_linear_80_62)"/>
<path d="M67.6576 42.625L70.3701 35.1463L63.4338 31.2713C62.6898 30.8606 62.1169 30.1976 61.8185 29.4019C61.5201 28.6061 61.5158 27.7299 61.8063 26.9313L64.4801 19.375L57.5438 15.5C56.7114 15.0427 56.0947 14.2734 55.8294 13.3614C55.5642 12.4494 55.6721 11.4693 56.1294 10.6369C56.5868 9.80444 57.3561 9.18777 58.2681 8.92252C59.1801 8.65727 60.1601 8.76519 60.9926 9.22252L70.6026 14.6475C71.3466 15.0582 71.9195 15.7212 72.2179 16.5169C72.5163 17.3127 72.5206 18.1889 72.2301 18.9875L69.5176 26.4275L76.4538 30.3025C77.1979 30.7132 77.7708 31.3762 78.0692 32.1719C78.3676 32.9677 78.3719 33.8439 78.0813 34.6425L75.3688 42.1213L82.3438 45.9963C82.756 46.2227 83.1196 46.5281 83.4137 46.8951C83.7079 47.262 83.9269 47.6833 84.0582 48.1349C84.3234 49.0469 84.2155 50.0269 83.7582 50.8594C83.3009 51.6918 82.5316 52.3085 81.6196 52.5738C80.7075 52.839 79.7275 52.7311 78.8951 52.2738L69.2463 46.965C68.5092 46.5482 67.9445 45.8826 67.6534 45.0873C67.3623 44.2921 67.3638 43.4192 67.6576 42.625Z" fill="url(#paint7_linear_80_62)"/>
<path d="M94.744 37.4713C95.1946 37.6006 95.6153 37.8175 95.982 38.1096C96.3487 38.4017 96.6542 38.7633 96.8809 39.1736C97.1077 39.584 97.2513 40.035 97.3035 40.5009C97.3557 40.9668 97.3155 41.4384 97.1852 41.8888L95.7127 46.965C95.4957 47.7018 95.0465 48.3487 94.4321 48.8095C93.8176 49.2704 93.0708 49.5204 92.3027 49.5225C91.9686 49.5707 91.6293 49.5707 91.2952 49.5225C90.8446 49.3932 90.4239 49.1763 90.0572 48.8842C89.6905 48.592 89.3851 48.2305 89.1583 47.8201C88.9315 47.4098 88.7879 46.9588 88.7357 46.4929C88.6835 46.027 88.7237 45.5554 88.854 45.105L90.3265 40.0288C90.4433 39.5676 90.6512 39.1346 90.9379 38.755C91.2247 38.3755 91.5845 38.0572 91.9962 37.8189C92.4078 37.5805 92.863 37.427 93.3349 37.3673C93.8068 37.3076 94.2859 37.3429 94.744 37.4713Z" fill="url(#paint8_linear_80_62)"/>
<path d="M67.1924 74.5937C66.4562 74.5915 65.7388 74.3613 65.1387 73.935L63.0462 72.4625C62.662 72.1902 62.3352 71.845 62.0844 71.4464C61.8336 71.0479 61.6638 70.6038 61.5846 70.1397C61.5055 69.6755 61.5185 69.2003 61.623 68.7411C61.7275 68.282 61.9214 67.8479 62.1937 67.4637C62.4659 67.0795 62.8112 66.7527 63.2097 66.5019C63.6083 66.2512 64.0523 66.0814 64.5165 66.0022C64.9807 65.923 65.4559 65.9361 65.915 66.0406C66.3742 66.1451 66.8082 66.339 67.1924 66.6112L69.2849 68.0837C69.9176 68.5152 70.3945 69.1389 70.6451 69.8625C70.8956 70.5862 70.9065 71.3713 70.6761 72.1016C70.4457 72.8319 69.9863 73.4686 69.3659 73.9174C68.7454 74.3663 67.9969 74.6034 67.2312 74.5937H67.1924Z" fill="url(#paint9_linear_80_62)"/>
<path d="M81.9565 56.265C82.6237 56.9334 82.9985 57.8393 82.9985 58.7837C82.9985 59.7282 82.6237 60.6341 81.9565 61.3025L80.484 62.775C80.1584 63.1282 79.7648 63.412 79.3268 63.6092C78.8888 63.8065 78.4155 63.9132 77.9352 63.923C77.4549 63.9328 76.9776 63.8454 76.532 63.6661C76.0863 63.4868 75.6815 63.2193 75.3418 62.8796C75.0022 62.5399 74.7347 62.1351 74.5553 61.6895C74.376 61.2438 74.2886 60.7665 74.2984 60.2862C74.3082 59.806 74.4149 59.3326 74.6122 58.8946C74.8095 58.4567 75.0932 58.0631 75.4465 57.7375L76.919 56.265C77.5874 55.5977 78.4932 55.2229 79.4377 55.2229C80.3822 55.2229 81.2881 55.5977 81.9565 56.265Z" fill="url(#paint10_linear_80_62)"/>
<path d="M42.6251 92.4188H42.0051C41.5344 92.4468 41.0628 92.3818 40.6172 92.2275C40.1716 92.0732 39.7607 91.8327 39.4081 91.5197C39.0555 91.2066 38.768 90.8272 38.562 90.403C38.356 89.9788 38.2356 89.5183 38.2076 89.0476C38.1796 88.5768 38.2446 88.1052 38.3989 87.6597C38.5531 87.2141 38.7937 86.8032 39.1067 86.4506C39.4198 86.098 39.7992 85.8104 40.2234 85.6045C40.6475 85.3985 41.1081 85.278 41.5788 85.2501L50.3751 83.8938C50.8381 83.8149 51.3122 83.828 51.7702 83.9324C52.2282 84.0367 52.6612 84.2302 53.0444 84.5019C53.4276 84.7736 53.7536 85.1181 54.0037 85.5157C54.2538 85.9133 54.4231 86.3564 54.5019 86.8194C54.5808 87.2825 54.5677 87.7566 54.4634 88.2146C54.359 88.6726 54.1655 89.1056 53.8938 89.4888C53.6222 89.872 53.2777 90.198 52.88 90.448C52.4824 90.6981 52.0394 90.8674 51.5763 90.9463L42.6251 92.4188Z" fill="url(#paint11_linear_80_62)"/>
<defs>
<linearGradient id="paint0_linear_80_62" x1="33.8224" y1="59.3649" x2="33.8224" y2="52.1671" gradientUnits="userSpaceOnUse">
<stop stop-color="#0360B7"/>
<stop offset="1" stop-color="#0FEAB4"/>
</linearGradient>
<linearGradient id="paint1_linear_80_62" x1="26.6227" y1="44.8725" x2="26.6227" y2="37.6747" gradientUnits="userSpaceOnUse">
<stop stop-color="#0360B7"/>
<stop offset="1" stop-color="#0FEAB4"/>
</linearGradient>
<linearGradient id="paint2_linear_80_62" x1="44.4981" y1="27.125" x2="44.4981" y2="19.9271" gradientUnits="userSpaceOnUse">
<stop stop-color="#0360B7"/>
<stop offset="1" stop-color="#0FEAB4"/>
</linearGradient>
<linearGradient id="paint3_linear_80_62" x1="58.7389" y1="41.4625" x2="58.7389" y2="34.226" gradientUnits="userSpaceOnUse">
<stop stop-color="#0360B7"/>
<stop offset="1" stop-color="#0FEAB4"/>
</linearGradient>
<linearGradient id="paint4_linear_80_62" x1="80.2062" y1="27.1638" x2="80.2062" y2="19.9659" gradientUnits="userSpaceOnUse">
<stop stop-color="#0360B7"/>
<stop offset="1" stop-color="#0FEAB4"/>
</linearGradient>
<linearGradient id="paint5_linear_80_62" x1="44.8327" y1="62.5053" x2="44.8327" y2="24.6329" gradientUnits="userSpaceOnUse">
<stop stop-color="#0360B7"/>
<stop offset="1" stop-color="#0FEAB4"/>
</linearGradient>
<linearGradient id="paint6_linear_80_62" x1="32.1495" y1="79.8647" x2="32.1495" y2="57.3878" gradientUnits="userSpaceOnUse">
<stop stop-color="#0360B7"/>
<stop offset="1" stop-color="#0FEAB4"/>
</linearGradient>
<linearGradient id="paint7_linear_80_62" x1="69.9438" y1="52.7163" x2="69.9438" y2="8.78003" gradientUnits="userSpaceOnUse">
<stop stop-color="#0360B7"/>
<stop offset="1" stop-color="#0FEAB4"/>
</linearGradient>
<linearGradient id="paint8_linear_80_62" x1="93.0196" y1="49.5587" x2="93.0196" y2="37.3391" gradientUnits="userSpaceOnUse">
<stop stop-color="#0360B7"/>
<stop offset="1" stop-color="#0FEAB4"/>
</linearGradient>
<linearGradient id="paint9_linear_80_62" x1="66.1875" y1="74.594" x2="66.1875" y2="65.9512" gradientUnits="userSpaceOnUse">
<stop stop-color="#0360B7"/>
<stop offset="1" stop-color="#0FD0EA"/>
</linearGradient>
<linearGradient id="paint10_linear_80_62" x1="78.6481" y1="63.9238" x2="78.6481" y2="55.2229" gradientUnits="userSpaceOnUse">
<stop stop-color="#034BB7"/>
<stop offset="1" stop-color="#0FD0EA"/>
</linearGradient>
<linearGradient id="paint11_linear_80_62" x1="46.377" y1="92.4251" x2="46.377" y2="83.843" gradientUnits="userSpaceOnUse">
<stop stop-color="#0360B7"/>
<stop offset="1" stop-color="#0FC3EA"/>
</linearGradient>
</defs>
</svg>
